<?xml version="1.0" encoding="UTF-8"?>
<svg xmlns="http://www.w3.org/2000/svg" xmlns:xlink="http://www.w3.org/1999/xlink" width="120px" height="120px" viewBox="0 0 120 120" version="1.1">
<g id="surface1">
<path style="fill:none;stroke-width:3;stroke-linecap:round;stroke-linejoin:miter;stroke:rgb(13.72549%,12.156863%,12.54902%);stroke-opacity:1;stroke-miterlimit:10;" d="M 6.848958 62.711589 L 6.848958 84.498698 " transform="matrix(1.2,0,0,1.2,0,0)"/>
<path style="fill:none;stroke-width:3;stroke-linecap:round;stroke-linejoin:miter;stroke:rgb(13.72549%,12.156863%,12.54902%);stroke-opacity:1;stroke-miterlimit:10;" d="M 16.539714 54.570312 L 16.539714 84.498698 " transform="matrix(1.2,0,0,1.2,0,0)"/>
<path style="fill:none;stroke-width:3;stroke-linecap:round;stroke-linejoin:miter;stroke:rgb(13.72549%,12.156863%,12.54902%);stroke-opacity:1;stroke-miterlimit:10;" d="M 26.220703 46.269531 L 26.220703 84.498698 " transform="matrix(1.2,0,0,1.2,0,0)"/>
<path style="fill:none;stroke-width:3;stroke-linecap:round;stroke-linejoin:miter;stroke:rgb(13.72549%,12.156863%,12.54902%);stroke-opacity:1;stroke-miterlimit:10;" d="M 35.911458 57.659505 L 35.911458 84.498698 " transform="matrix(1.2,0,0,1.2,0,0)"/>
<path style="fill:none;stroke-width:3;stroke-linecap:round;stroke-linejoin:miter;stroke:rgb(13.72549%,12.156863%,12.54902%);stroke-opacity:1;stroke-miterlimit:10;" d="M 45.589193 69.339193 L 45.589193 84.498698 " transform="matrix(1.2,0,0,1.2,0,0)"/>
<path style="fill:none;stroke-width:3;stroke-linecap:round;stroke-linejoin:miter;stroke:rgb(13.72549%,12.156863%,12.54902%);stroke-opacity:1;stroke-miterlimit:10;" d="M 55.279948 71.979167 L 55.279948 84.498698 " transform="matrix(1.2,0,0,1.2,0,0)"/>
<path style="fill:none;stroke-width:3;stroke-linecap:round;stroke-linejoin:miter;stroke:rgb(13.72549%,12.156863%,12.54902%);stroke-opacity:1;stroke-miterlimit:10;" d="M 64.960938 74.76888 L 64.960938 84.498698 " transform="matrix(1.2,0,0,1.2,0,0)"/>
<path style="fill:none;stroke-width:3;stroke-linecap:round;stroke-linejoin:miter;stroke:rgb(13.72549%,12.156863%,12.54902%);stroke-opacity:1;stroke-miterlimit:10;" d="M 74.648438 76.061198 L 74.648438 84.498698 " transform="matrix(1.2,0,0,1.2,0,0)"/>
<path style="fill:none;stroke-width:3;stroke-linecap:round;stroke-linejoin:miter;stroke:rgb(13.72549%,12.156863%,12.54902%);stroke-opacity:1;stroke-miterlimit:10;" d="M 84.329427 70.019531 L 84.329427 84.498698 " transform="matrix(1.2,0,0,1.2,0,0)"/>
<path style="fill:none;stroke-width:3;stroke-linecap:round;stroke-linejoin:miter;stroke:rgb(13.72549%,12.156863%,12.54902%);stroke-opacity:1;stroke-miterlimit:10;" d="M 94.020182 54.410807 L 94.020182 84.498698 " transform="matrix(1.2,0,0,1.2,0,0)"/>
<path style="fill:none;stroke-width:3;stroke-linecap:butt;stroke-linejoin:miter;stroke:rgb(13.72549%,12.156863%,12.54902%);stroke-opacity:1;stroke-miterlimit:10;" d="M 15.559896 43.369141 C 15.559896 46.55599 12.97526 49.140625 9.788411 49.140625 C 6.604818 49.140625 4.020182 46.55599 4.020182 43.369141 C 4.020182 40.182292 6.604818 37.600911 9.788411 37.600911 C 12.97526 37.600911 15.559896 40.182292 15.559896 43.369141 Z M 15.559896 43.369141 " transform="matrix(1.2,0,0,1.2,0,0)"/>
<path style="fill:none;stroke-width:3;stroke-linecap:butt;stroke-linejoin:miter;stroke:rgb(13.72549%,12.156863%,12.54902%);stroke-opacity:1;stroke-miterlimit:10;" d="M 69.801432 41.341146 C 69.801432 44.261068 67.431641 46.630859 64.508464 46.630859 C 61.588542 46.630859 59.21875 44.261068 59.21875 41.341146 C 59.21875 38.417969 61.588542 36.051432 64.508464 36.051432 C 67.431641 36.051432 69.801432 38.417969 69.801432 41.341146 Z M 69.801432 41.341146 " transform="matrix(1.2,0,0,1.2,0,0)"/>
<path style="fill:none;stroke-width:3;stroke-linecap:butt;stroke-linejoin:miter;stroke:rgb(13.72549%,12.156863%,12.54902%);stroke-opacity:1;stroke-miterlimit:10;" d="M 82.871094 44.951172 C 82.871094 55.091146 74.648438 63.310547 64.508464 63.310547 C 54.36849 63.310547 46.149089 55.091146 46.149089 44.951172 C 46.149089 34.811198 54.36849 26.588542 64.508464 26.588542 C 74.648438 26.588542 82.871094 34.811198 82.871094 44.951172 Z M 82.871094 44.951172 " transform="matrix(1.2,0,0,1.2,0,0)"/>
<path style="fill:none;stroke-width:3;stroke-linecap:butt;stroke-linejoin:miter;stroke:rgb(13.72549%,12.156863%,12.54902%);stroke-opacity:1;stroke-miterlimit:10;" d="M 52.171224 55.559896 C 55.439453 52.285156 59.876302 50.445964 64.505208 50.445964 C 69.134115 50.445964 73.570964 52.285156 76.839193 55.559896 " transform="matrix(1.2,0,0,1.2,0,0)"/>
<path style="fill:none;stroke-width:3;stroke-linecap:butt;stroke-linejoin:miter;stroke:rgb(13.72549%,12.156863%,12.54902%);stroke-opacity:1;stroke-miterlimit:10;" d="M 40.738932 22.441406 C 40.738932 29.309896 35.169271 34.879557 28.300781 34.879557 C 21.429036 34.879557 15.859375 29.309896 15.859375 22.441406 C 15.859375 15.569661 21.429036 10 28.300781 10 C 35.169271 10 40.738932 15.569661 40.738932 22.441406 Z M 40.738932 22.441406 " transform="matrix(1.2,0,0,1.2,0,0)"/>
<path style=" stroke:none;fill-rule:nonzero;fill:rgb(13.72549%,12.156863%,12.54902%);fill-opacity:1;" d="M 38.878906 22.90625 C 38.878906 25.625 36.675781 27.828125 33.960938 27.828125 C 31.242188 27.828125 29.039062 25.625 29.039062 22.90625 C 29.039062 20.191406 31.242188 17.988281 33.960938 17.988281 C 36.675781 17.988281 38.878906 20.191406 38.878906 22.90625 Z M 38.878906 22.90625 "/>
<path style="fill:none;stroke-width:2.75;stroke-linecap:butt;stroke-linejoin:miter;stroke:rgb(13.72549%,12.156863%,12.54902%);stroke-opacity:1;stroke-miterlimit:10;" d="M 20.419922 29.189453 C 22.509766 27.096354 25.345052 25.917969 28.304036 25.917969 C 31.263021 25.917969 34.101562 27.096354 36.191406 29.189453 " transform="matrix(1.2,0,0,1.2,0,0)"/>
<path style="fill:none;stroke-width:3;stroke-linecap:round;stroke-linejoin:miter;stroke:rgb(13.72549%,12.156863%,12.54902%);stroke-opacity:1;stroke-miterlimit:10;" d="M 39.720052 28.13151 L 48.60026 35.771484 " transform="matrix(1.2,0,0,1.2,0,0)"/>
<path style="fill:none;stroke-width:3;stroke-linecap:round;stroke-linejoin:miter;stroke:rgb(13.72549%,12.156863%,12.54902%);stroke-opacity:1;stroke-miterlimit:10;" d="M 93.040365 18.349609 L 78.83138 32.721354 " transform="matrix(1.2,0,0,1.2,0,0)"/>
<path style="fill:none;stroke-width:3;stroke-linecap:square;stroke-linejoin:miter;stroke:rgb(13.72549%,12.156863%,12.54902%);stroke-opacity:1;stroke-miterlimit:10;" d="M 80.511068 17.119141 L 94.020182 17.119141 L 94.020182 30.63151 " transform="matrix(1.2,0,0,1.2,0,0)"/>
<path style="fill:none;stroke-width:3;stroke-linecap:round;stroke-linejoin:miter;stroke:rgb(13.72549%,12.156863%,12.54902%);stroke-opacity:1;stroke-miterlimit:10;" d="M 13.610026 38.470052 L 19.690755 31.621094 " transform="matrix(1.2,0,0,1.2,0,0)"/>
</g>
</svg>
