<svg id="Layer_1" data-name="Layer 1" xmlns="http://www.w3.org/2000/svg" viewBox="0 0 100 100"><defs><style>.cls-1,.cls-2,.cls-4,.cls-5{fill:none;stroke:#231f20;stroke-miterlimit:10;}.cls-1{stroke-linecap:round;}.cls-1,.cls-2,.cls-5{stroke-width:3px;}.cls-3{fill:#231f20;}.cls-4{stroke-width:2.75px;}.cls-5{stroke-linecap:square;}</style></defs><line class="cls-1" x1="6.85" y1="62.71" x2="6.85" y2="84.5"/><line class="cls-1" x1="16.54" y1="54.57" x2="16.54" y2="84.5"/><line class="cls-1" x1="26.22" y1="46.27" x2="26.22" y2="84.5"/><line class="cls-1" x1="35.91" y1="57.66" x2="35.91" y2="84.5"/><line class="cls-1" x1="45.59" y1="69.34" x2="45.59" y2="84.5"/><line class="cls-1" x1="55.28" y1="71.98" x2="55.28" y2="84.5"/><line class="cls-1" x1="64.96" y1="74.77" x2="64.96" y2="84.5"/><line class="cls-1" x1="74.65" y1="76.06" x2="74.65" y2="84.5"/><line class="cls-1" x1="84.33" y1="70.02" x2="84.33" y2="84.5"/><line class="cls-1" x1="94.02" y1="54.41" x2="94.02" y2="84.5"/><circle class="cls-2" cx="9.79" cy="43.37" r="5.77"/><circle class="cls-2" cx="64.51" cy="41.34" r="5.29"/><circle class="cls-2" cx="64.51" cy="44.95" r="18.36"/><path class="cls-2" d="M52.17,55.56a17.43,17.43,0,0,1,24.67,0"/><circle class="cls-2" cx="28.3" cy="22.44" r="12.44"/><circle class="cls-3" cx="28.3" cy="19.09" r="4.1"/><path class="cls-4" d="M20.42,29.19a11.14,11.14,0,0,1,15.77,0"/><line class="cls-1" x1="39.72" y1="28.13" x2="48.6" y2="35.77"/><line class="cls-1" x1="93.04" y1="18.35" x2="78.83" y2="32.72"/><polyline class="cls-5" points="80.51 17.12 94.02 17.12 94.02 30.63"/><line class="cls-1" x1="13.61" y1="38.47" x2="19.69" y2="31.62"/></svg>